<svg xmlns="http://www.w3.org/2000/svg" version="1.1" width="560" height="560"><path d="M262.67949192 230L262.67949192 150L280 140L349.2820323 180L383.92304845 200L383.92304845 280L280 340L176.07695155 280L176.07695155 200L262.67949192 150Z" fill="#ffeeee"/><path d="M262.67949192 330L280 340L505.16660498 210L505.16660498 170L557.12812921 200L557.12812921 400L522.48711306 420L505.16660498 410L505.16660498 390L314.64101615 500L314.64101615 540L280 560L245.35898385 540L245.35898385 500L54.83339502 390L54.83339502 410L37.51288694 420L2.87187079 400L2.87187079 200L54.83339502 170L54.83339502 210L176.07695155 280Z" fill="#777777"/><path d="M262.67949192 110L262.67949192 10L280 0L383.92304845 60L383.92304845 80L297.32050808 130L297.32050808 150L280 140L262.67949192 150L262.67949192 130L176.07695155 80L176.07695155 60L262.67949192 10Z" fill="#ccffff"/><path d="M297.32050808 130L401.24355653 70L470.52558883 110L505.16660498 130L505.16660498 210L383.92304845 280L383.92304845 200L349.2820323 180L297.32050808 150Z" fill="#eecc00"/><path d="M314.64101615 500L505.16660498 390L505.16660498 410L314.64101615 520ZM228.03847577 490L245.35898385 500L245.35898385 520L54.83339502 410L54.83339502 390Z" fill="#ff3300"/><path d="M245.35898385 120L262.67949192 130L262.67949192 150L176.07695155 200L176.07695155 280L54.83339502 210L54.83339502 130L158.75644347 70Z" fill="#883300"/><path d="M262.67949192 250L280 260L280 340L176.07695155 280L176.07695155 200L245.35898385 240ZM262.67949192 350L280 360L280 560L245.35898385 540L245.35898385 520L54.83339502 410L54.83339502 390L37.51288694 380L37.51288694 420L2.87187079 400L2.87187079 200L158.75644347 290ZM262.67949192 110L280 120L280 140L262.67949192 150L262.67949192 130L176.07695155 80L176.07695155 60ZM297.32050808 130L366.60254038 170L401.24355653 190L401.24355653 270L383.92304845 280L383.92304845 200L349.2820323 180L297.32050808 150ZM505.16660498 390L522.48711306 380L522.48711306 420L505.16660498 410ZM505.16660498 190L522.48711306 200L505.16660498 210ZM141.43593539 220L141.43593539 240L158.75644347 230L158.75644347 270L54.83339502 210L54.83339502 130L158.75644347 190L158.75644347 230L141.43593539 240Z" fill="rgba(0,0,0,0.15)"/><path d="M280 260L383.92304845 200L383.92304845 280L280 340ZM280 360L557.12812921 200L557.12812921 400L522.48711306 420L522.48711306 380L505.16660498 390L505.16660498 410L314.64101615 520L314.64101615 540L280 560ZM280 120L383.92304845 60L383.92304845 80L297.32050808 130L297.32050808 150L280 140ZM401.24355653 230L401.24355653 190L505.16660498 130L505.16660498 210L401.24355653 270ZM245.35898385 140L262.67949192 130L262.67949192 150L176.07695155 200L176.07695155 280L158.75644347 270L158.75644347 190ZM37.51288694 380L54.83339502 390L54.83339502 410L37.51288694 420ZM37.51288694 200L54.83339502 190L54.83339502 210Z" fill="rgba(0,0,0,0.4)"/></svg>